<svg id="Layer_1" enable-background="new 0 0 256 256" height="512" viewBox="0 0 256 256" width="512" xmlns="http://www.w3.org/2000/svg"><g><g><g><g><path d="m32.035 213.942c-7.535 0-13.665-6.13-13.665-13.665v-123.776c0-7.535 6.13-13.665 13.665-13.665h191.931c7.535 0 13.665 6.13 13.665 13.665v123.776c0 7.535-6.13 13.665-13.665 13.665z" fill="#63bce7"/></g></g><g><g><path d="m229.221 71.245v129.008c0 2.916-2.364 5.28-5.28 5.28h-191.882c-2.916 0-5.28-2.364-5.28-5.28v-129.008z" fill="#f8af23"/></g></g><g><g><path d="m35.178 200.253v-129.008h-8.399v129.008c0 2.916 2.364 5.28 5.28 5.28h8.399c-2.917 0-5.28-2.364-5.28-5.28z" fill="#f87023"/></g></g><g><g><path d="m220.822 200.253v-129.008h8.399v129.008c0 2.916-2.364 5.28-5.28 5.28h-8.399c2.917 0 5.28-2.364 5.28-5.28z" fill="#f8d323"/></g></g><g><g><path d="m128 213.942h-119.333l3.053 7.024c2.751 6.329 8.995 10.423 15.896 10.423h100.384 100.385c6.901 0 13.145-4.094 15.896-10.423l3.053-7.024z" fill="#9e9e9e"/></g></g><g><g><path d="m238.935 213.942-3.053 7.024c-2.751 6.329-8.995 10.423-15.896 10.423h8.399c6.901 0 13.145-4.094 15.896-10.423l3.053-7.024z" fill="#cecece"/></g></g><g><g><path d="m20.118 220.966-3.053-7.024h-8.398l3.053 7.024c2.751 6.329 8.995 10.423 15.896 10.423h8.399c-6.902 0-13.146-4.094-15.897-10.423z" fill="#707070"/></g></g><g><g><path d="m82.442 213.942 4.22 5.388c1.649 2.106 4.175 3.336 6.85 3.336h68.975c2.675 0 5.201-1.23 6.85-3.336l4.221-5.388z" fill="#f46275"/></g></g><g><g><g><circle cx="45.708" cy="85.218" fill="#63bce7" r="5.25"/></g></g><g><g><circle cx="64.348" cy="85.218" fill="#63bce7" r="5.25"/></g></g><g><g><circle cx="82.989" cy="85.218" fill="#63bce7" r="5.25"/></g></g></g><g><g><g><path d="m65.6 150.996h17.905v42.5h-17.905z" fill="#f46275"/></g></g><g><g><path d="m101.232 141.439h17.905v52.057h-17.905z" fill="#f46275"/></g></g><g><g><path d="m136.863 131.883h17.905v61.613h-17.905z" fill="#f46275"/></g></g><g><g><path d="m172.494 122.326h17.905v71.17h-17.905z" fill="#f46275"/></g></g></g></g><g><g><g><path d="m167.158 49.559c0-21.627-17.532-39.158-39.158-39.158s-39.158 17.532-39.158 39.158c0 16.812 10.597 31.144 25.473 36.695 4.261 1.59 8.87 2.463 13.685 2.463s9.424-.874 13.685-2.463c14.877-5.55 25.473-19.883 25.473-36.695z" fill="#63bce7"/></g></g><g><g><path d="m128 10.401c-1.419 0-2.819.08-4.199.227 19.651 2.096 34.959 18.724 34.959 38.931 0 16.812-10.597 31.144-25.473 36.695-3.004 1.121-6.185 1.877-9.486 2.23 1.38.148 2.78.233 4.199.233 4.815 0 9.424-.874 13.685-2.463 14.877-5.551 25.473-19.883 25.473-36.695 0-21.626-17.531-39.158-39.158-39.158z" fill="#63e2e7"/></g></g><g><g><path d="m97.243 49.559c0-20.207 15.307-36.835 34.958-38.931-1.38-.147-2.781-.227-4.201-.227-21.626 0-39.158 17.532-39.158 39.158 0 16.812 10.597 31.144 25.473 36.695 4.261 1.59 8.87 2.463 13.685 2.463 1.42 0 2.82-.085 4.201-.233-3.3-.354-6.48-1.11-9.484-2.231-14.877-5.549-25.474-19.882-25.474-36.694z" fill="#6377e7"/></g></g><g><g><g><path d="m143.96 49.54v10.953c0 .854-.32 1.594-.96 2.221-.64.628-1.399.941-2.277.941h-9.636v7.716c0 .879-.314 1.625-.941 2.24-.628.615-1.368.922-2.221.922-.903 0-1.669-.307-2.296-.922-.628-.615-.941-1.361-.941-2.24v-7.791h-9.56c-.854 0-1.594-.307-2.221-.922-.628-.615-.941-1.361-.941-2.24 0-.878.307-1.625.922-2.24.615-.614 1.361-.922 2.24-.922h22.358v-4.554h-22.283c-.879 0-1.625-.301-2.239-.903-.616-.602-.923-1.355-.923-2.259v-10.915c0-.879.307-1.625.923-2.24.614-.614 1.361-.922 2.239-.922h9.485v-7.716c0-.853.295-1.594.885-2.221s1.386-.941 2.39-.941c.853 0 1.587.308 2.202.922.614.615.922 1.361.922 2.24v7.716h9.711c.878 0 1.637.314 2.277.941.64.628.96 1.368.96 2.221 0 .879-.32 1.637-.96 2.277s-1.399.96-2.277.96h-22.358v4.516h22.283c.878 0 1.637.314 2.277.941.64.628.96 1.368.96 2.221z" fill="#f8af23"/></g></g></g><g><g><g><path d="m248.588 213.12c-.277-.423-.749-.678-1.254-.678h-14.352c3.722-2.766 6.149-7.182 6.149-12.165v-123.776c0-8.362-6.803-15.165-15.165-15.165h-57.075c1.149-3.763 1.768-7.723 1.768-11.776 0-22.419-18.239-40.658-40.658-40.658s-40.659 18.239-40.659 40.658c0 4.053.618 8.013 1.768 11.776h-57.075c-8.362 0-15.165 6.803-15.165 15.165v123.776c0 4.983 2.427 9.399 6.149 12.165h-14.352c-.505 0-.977.255-1.254.678s-.323.957-.121 1.42l3.053 7.023c2.99 6.881 9.77 11.326 17.271 11.326h200.77c7.501 0 14.281-4.445 17.271-11.326l3.053-7.023c.201-.463.155-.997-.122-1.42zm-120.588-201.219c20.765 0 37.658 16.894 37.658 37.658 0 15.641-9.845 29.822-24.498 35.289-8.427 3.145-17.895 3.145-26.321 0-14.652-5.466-24.497-19.648-24.497-35.288 0-20.765 16.893-37.659 37.658-37.659zm-14.209 75.758c4.55 1.698 9.331 2.559 14.209 2.559s9.66-.86 14.209-2.559c7.903-2.948 14.511-8.245 19.145-14.914h66.367v127.532c0 2.071-1.685 3.756-3.756 3.756h-191.93c-2.071 0-3.756-1.685-3.756-3.756v-127.532h66.367c4.634 6.669 11.241 11.966 19.145 14.914zm-93.921 112.618v-123.776c0-6.708 5.457-12.165 12.165-12.165h58.12c.734 1.868 1.604 3.675 2.599 5.409h-65.975c-.829 0-1.5.672-1.5 1.5v129.032c0 3.726 3.031 6.756 6.756 6.756h191.931c3.725 0 6.756-3.03 6.756-6.756v-129.032c0-.828-.671-1.5-1.5-1.5h-65.975c.995-1.734 1.865-3.541 2.599-5.409h58.12c6.708 0 12.165 5.457 12.165 12.165v123.776c0 6.708-5.457 12.165-12.165 12.165h-50.407-91.117-50.407c-6.708 0-12.165-5.457-12.165-12.165zm150.608 15.165-2.321 2.963c-1.375 1.755-3.441 2.761-5.669 2.761h-68.975c-2.229 0-4.295-1.006-5.669-2.761l-2.321-2.963zm72.427 4.926c-.118.272-.25.535-.382.798h-31.098c-.829 0-1.5.672-1.5 1.5s.671 1.5 1.5 1.5h29.14c-2.96 3.567-7.393 5.724-12.18 5.724h-200.77c-4.786 0-9.22-2.157-12.18-5.724h29.14c.829 0 1.5-.672 1.5-1.5s-.671-1.5-1.5-1.5h-31.097c-.132-.263-.264-.526-.382-.798l-2.141-4.926h21.081 49.677l3.77 4.812c1.947 2.485 4.874 3.911 8.031 3.911h68.975c3.157 0 6.084-1.426 8.031-3.911l3.77-4.812h49.677 21.081z" fill="#3f3679"/></g></g><g><g><path d="m65.22 221.166h-10.375c-.829 0-1.5.672-1.5 1.5s.671 1.5 1.5 1.5h10.375c.829 0 1.5-.672 1.5-1.5s-.672-1.5-1.5-1.5z" fill="#3f3679"/></g></g><g><g><path d="m201.155 221.166h-10.375c-.829 0-1.5.672-1.5 1.5s.671 1.5 1.5 1.5h10.375c.829 0 1.5-.672 1.5-1.5s-.671-1.5-1.5-1.5z" fill="#3f3679"/></g></g><g><g><path d="m208.051 244.099h-158.343c-.829 0-1.5.672-1.5 1.5s.671 1.5 1.5 1.5h158.343c.829 0 1.5-.672 1.5-1.5s-.671-1.5-1.5-1.5z" fill="#3f3679"/></g></g><g><g><path d="m232.882 244.099h-12.75c-.829 0-1.5.672-1.5 1.5s.671 1.5 1.5 1.5h12.75c.829 0 1.5-.672 1.5-1.5s-.671-1.5-1.5-1.5z" fill="#3f3679"/></g></g><g><g><path d="m37.627 244.099h-12.75c-.829 0-1.5.672-1.5 1.5s.671 1.5 1.5 1.5h12.75c.829 0 1.5-.672 1.5-1.5s-.671-1.5-1.5-1.5z" fill="#3f3679"/></g></g><g><g><path d="m45.708 91.968c3.722 0 6.75-3.028 6.75-6.75s-3.028-6.75-6.75-6.75-6.75 3.028-6.75 6.75 3.027 6.75 6.75 6.75zm0-10.5c2.068 0 3.75 1.683 3.75 3.75s-1.682 3.75-3.75 3.75-3.75-1.683-3.75-3.75 1.682-3.75 3.75-3.75z" fill="#3f3679"/></g></g><g><g><path d="m64.349 91.968c3.722 0 6.75-3.028 6.75-6.75s-3.028-6.75-6.75-6.75-6.75 3.028-6.75 6.75 3.027 6.75 6.75 6.75zm0-10.5c2.068 0 3.75 1.683 3.75 3.75s-1.682 3.75-3.75 3.75-3.75-1.683-3.75-3.75 1.682-3.75 3.75-3.75z" fill="#3f3679"/></g></g><g><g><path d="m82.989 91.968c3.722 0 6.75-3.028 6.75-6.75s-3.028-6.75-6.75-6.75-6.75 3.028-6.75 6.75 3.028 6.75 6.75 6.75zm0-10.5c2.068 0 3.75 1.683 3.75 3.75s-1.682 3.75-3.75 3.75-3.75-1.683-3.75-3.75 1.682-3.75 3.75-3.75z" fill="#3f3679"/></g></g><g><g><path d="m83.505 149.496h-17.905c-.829 0-1.5.672-1.5 1.5v42.5c0 .828.671 1.5 1.5 1.5h17.905c.829 0 1.5-.672 1.5-1.5v-42.5c0-.828-.671-1.5-1.5-1.5zm-1.5 42.5h-14.905v-39.5h14.905z" fill="#3f3679"/></g></g><g><g><path d="m119.137 139.939h-17.906c-.829 0-1.5.672-1.5 1.5v52.057c0 .828.671 1.5 1.5 1.5h17.906c.829 0 1.5-.672 1.5-1.5v-52.057c0-.828-.671-1.5-1.5-1.5zm-1.5 52.057h-14.906v-49.057h14.906z" fill="#3f3679"/></g></g><g><g><path d="m154.769 130.383h-17.906c-.829 0-1.5.672-1.5 1.5v61.613c0 .828.671 1.5 1.5 1.5h17.906c.829 0 1.5-.672 1.5-1.5v-61.613c0-.828-.672-1.5-1.5-1.5zm-1.5 61.613h-14.906v-58.613h14.906z" fill="#3f3679"/></g></g><g><g><path d="m170.995 122.326v71.17c0 .828.671 1.5 1.5 1.5h17.905c.829 0 1.5-.672 1.5-1.5v-71.17c0-.828-.671-1.5-1.5-1.5h-17.905c-.829 0-1.5.672-1.5 1.5zm3 1.5h14.905v68.17h-14.905z" fill="#3f3679"/></g></g><g><g><path d="m76.313 112.273c.215.8 1.034 1.273 1.837 1.061l48.159-12.918v16.552c0 .466.217.906.586 1.189.265.204.587.311.914.311.129 0 .26-.017.388-.051l47.818-12.79-5.358 8.839c-.43.708-.203 1.631.505 2.061.243.146.511.217.776.217.507 0 1.002-.257 1.284-.723l7.225-11.919c.206-.34.269-.748.174-1.135-.095-.386-.339-.719-.68-.926l-11.918-7.225c-.707-.427-1.63-.203-2.06.506-.43.708-.203 1.631.505 2.061l8.804 5.336-45.964 12.294v-16.552c0-.467-.217-.906-.587-1.19-.372-.284-.852-.379-1.302-.259l-50.048 13.424c-.798.214-1.272 1.038-1.058 1.837z" fill="#3f3679"/></g></g><g><g><path d="m115.127 55.757c-1.267 0-2.408.471-3.3 1.361-.891.891-1.361 2.032-1.361 3.301 0 1.273.481 2.419 1.39 3.31.901.884 2.032 1.352 3.271 1.352h8.061v6.292c0 1.273.481 2.419 1.39 3.31.901.885 2.059 1.353 3.347 1.353 1.238 0 2.369-.468 3.272-1.353.909-.893 1.39-2.037 1.39-3.31v-6.217h8.136c1.263 0 2.414-.474 3.327-1.37.922-.903 1.41-2.041 1.41-3.291v-10.955c0-1.249-.487-2.387-1.411-3.293-.915-.895-2.065-1.368-3.326-1.368h-20.783v-1.517h20.858c1.268 0 2.422-.483 3.338-1.399.915-.916 1.399-2.07 1.399-3.338 0-1.249-.487-2.388-1.411-3.294-.915-.895-2.065-1.368-3.326-1.368h-8.211v-6.216c0-1.268-.47-2.408-1.362-3.302-.892-.89-2.02-1.36-3.262-1.36-1.41 0-2.614.488-3.483 1.413-.857.913-1.292 2.006-1.292 3.249v6.216h-7.985c-1.268 0-2.409.471-3.299 1.36-.891.891-1.362 2.032-1.362 3.302v10.915c0 1.302.475 2.453 1.373 3.33.889.871 2.026 1.332 3.289 1.332h20.783v1.555zm22.358-4.555h-22.283c-.488 0-.854-.146-1.191-.477-.326-.317-.471-.684-.471-1.186v-10.914c0-.482.149-.846.482-1.179.334-.334.698-.483 1.179-.483h9.485c.829 0 1.5-.672 1.5-1.5v-7.716c0-.475.147-.843.478-1.194.189-.201.529-.468 1.297-.468.455 0 .808.149 1.141.481.334.335.483.699.483 1.181v7.716c0 .828.671 1.5 1.5 1.5h9.711c.487 0 .866.158 1.227.512.353.346.51.701.51 1.15 0 .481-.161.856-.521 1.217-.36.36-.735.521-1.216.521h-22.358c-.829 0-1.5.672-1.5 1.5v4.517c0 .828.671 1.5 1.5 1.5h22.283c.487 0 .866.158 1.227.512.353.346.51.7.51 1.149v10.954c0 .449-.157.803-.511 1.149-.361.354-.739.512-1.226.512h-9.636c-.829 0-1.5.672-1.5 1.5v7.717c0 .475-.151.835-.49 1.168-.349.342-.71.494-1.172.494-.513 0-.897-.152-1.246-.494-.34-.333-.491-.693-.491-1.168v-7.793c0-.828-.671-1.5-1.5-1.5h-9.561c-.462 0-.823-.151-1.17-.493-.34-.333-.491-.693-.491-1.168 0-.482.149-.846.481-1.179.335-.334.699-.483 1.18-.483h22.358c.829 0 1.5-.672 1.5-1.5v-4.555c.002-.828-.669-1.5-1.498-1.5z" fill="#3f3679"/></g></g></g></g></g></svg>